<mxfile host="app.diagrams.net" modified="2021-05-24T11:46:18.890Z" agent="5.0 (Macintosh; Intel Mac OS X 10_14_6) AppleWebKit/537.36 (KHTML, like Gecko) Chrome/90.0.4430.93 Safari/537.36" etag="jd0jGH9SwyiP6xfW8FFA" version="14.7.0" type="github">
  <diagram id="-fhc4FTl3doFwcFXco5H" name="Page-1">
    <mxGraphModel dx="946" dy="470" grid="1" gridSize="10" guides="1" tooltips="1" connect="1" arrows="1" fold="1" page="1" pageScale="1" pageWidth="827" pageHeight="1169" math="0" shadow="0">
      <root>
        <mxCell id="0" />
        <mxCell id="1" parent="0" />
        <mxCell id="czydhFQv_Nks7dmE3Ces-11" style="edgeStyle=orthogonalEdgeStyle;rounded=0;orthogonalLoop=1;jettySize=auto;html=1;exitX=0.5;exitY=1;exitDx=0;exitDy=0;" edge="1" parent="1" source="czydhFQv_Nks7dmE3Ces-1" target="czydhFQv_Nks7dmE3Ces-4">
          <mxGeometry relative="1" as="geometry" />
        </mxCell>
        <mxCell id="czydhFQv_Nks7dmE3Ces-1" value="UI 响应" style="rounded=0;whiteSpace=wrap;html=1;" vertex="1" parent="1">
          <mxGeometry x="250" y="20" width="310" height="50" as="geometry" />
        </mxCell>
        <mxCell id="czydhFQv_Nks7dmE3Ces-2" value="最终RTF" style="rounded=0;whiteSpace=wrap;html=1;" vertex="1" parent="1">
          <mxGeometry x="270" y="270" width="150" height="40" as="geometry" />
        </mxCell>
        <mxCell id="czydhFQv_Nks7dmE3Ces-14" style="edgeStyle=orthogonalEdgeStyle;rounded=0;sketch=0;orthogonalLoop=1;jettySize=auto;html=1;exitX=0.5;exitY=1;exitDx=0;exitDy=0;entryX=0.9;entryY=-0.05;entryDx=0;entryDy=0;entryPerimeter=0;strokeWidth=1;" edge="1" parent="1" source="czydhFQv_Nks7dmE3Ces-4" target="czydhFQv_Nks7dmE3Ces-2">
          <mxGeometry relative="1" as="geometry" />
        </mxCell>
        <mxCell id="czydhFQv_Nks7dmE3Ces-15" value="其他默认行为" style="edgeLabel;html=1;align=center;verticalAlign=middle;resizable=0;points=[];" vertex="1" connectable="0" parent="czydhFQv_Nks7dmE3Ces-14">
          <mxGeometry x="-0.1818" y="1" relative="1" as="geometry">
            <mxPoint as="offset" />
          </mxGeometry>
        </mxCell>
        <mxCell id="czydhFQv_Nks7dmE3Ces-21" style="edgeStyle=orthogonalEdgeStyle;rounded=0;sketch=0;orthogonalLoop=1;jettySize=auto;html=1;exitX=1;exitY=0.5;exitDx=0;exitDy=0;entryX=0.5;entryY=0;entryDx=0;entryDy=0;strokeWidth=1;" edge="1" parent="1" source="czydhFQv_Nks7dmE3Ces-4" target="czydhFQv_Nks7dmE3Ces-17">
          <mxGeometry relative="1" as="geometry" />
        </mxCell>
        <mxCell id="czydhFQv_Nks7dmE3Ces-22" value="拦截" style="edgeLabel;html=1;align=center;verticalAlign=middle;resizable=0;points=[];" vertex="1" connectable="0" parent="czydhFQv_Nks7dmE3Ces-21">
          <mxGeometry x="-0.28" y="-2" relative="1" as="geometry">
            <mxPoint as="offset" />
          </mxGeometry>
        </mxCell>
        <mxCell id="czydhFQv_Nks7dmE3Ces-4" value="用户行为" style="rhombus;whiteSpace=wrap;html=1;" vertex="1" parent="1">
          <mxGeometry x="340" y="120" width="130" height="60" as="geometry" />
        </mxCell>
        <mxCell id="czydhFQv_Nks7dmE3Ces-9" value="" style="endArrow=classic;html=1;entryX=0.071;entryY=0.025;entryDx=0;entryDy=0;entryPerimeter=0;exitX=0.1;exitY=1;exitDx=0;exitDy=0;exitPerimeter=0;" edge="1" parent="1" source="czydhFQv_Nks7dmE3Ces-1" target="czydhFQv_Nks7dmE3Ces-2">
          <mxGeometry width="50" height="50" relative="1" as="geometry">
            <mxPoint x="250" y="190" as="sourcePoint" />
            <mxPoint x="300" y="140" as="targetPoint" />
          </mxGeometry>
        </mxCell>
        <mxCell id="czydhFQv_Nks7dmE3Ces-10" value="文本" style="edgeLabel;html=1;align=center;verticalAlign=middle;resizable=0;points=[];" vertex="1" connectable="0" parent="czydhFQv_Nks7dmE3Ces-9">
          <mxGeometry x="0.0261" y="1" relative="1" as="geometry">
            <mxPoint as="offset" />
          </mxGeometry>
        </mxCell>
        <mxCell id="czydhFQv_Nks7dmE3Ces-19" style="edgeStyle=orthogonalEdgeStyle;rounded=0;sketch=0;orthogonalLoop=1;jettySize=auto;html=1;exitX=0.5;exitY=1;exitDx=0;exitDy=0;strokeWidth=1;" edge="1" parent="1" source="czydhFQv_Nks7dmE3Ces-17">
          <mxGeometry relative="1" as="geometry">
            <mxPoint x="520" y="270" as="targetPoint" />
          </mxGeometry>
        </mxCell>
        <mxCell id="czydhFQv_Nks7dmE3Ces-17" value="行为收集" style="rounded=0;whiteSpace=wrap;html=1;" vertex="1" parent="1">
          <mxGeometry x="480" y="200" width="80" height="30" as="geometry" />
        </mxCell>
        <mxCell id="czydhFQv_Nks7dmE3Ces-23" style="edgeStyle=orthogonalEdgeStyle;rounded=0;sketch=0;orthogonalLoop=1;jettySize=auto;html=1;exitX=0;exitY=0.5;exitDx=0;exitDy=0;strokeWidth=1;" edge="1" parent="1" source="czydhFQv_Nks7dmE3Ces-20" target="czydhFQv_Nks7dmE3Ces-2">
          <mxGeometry relative="1" as="geometry" />
        </mxCell>
        <mxCell id="czydhFQv_Nks7dmE3Ces-20" value="行为处理" style="rounded=0;whiteSpace=wrap;html=1;" vertex="1" parent="1">
          <mxGeometry x="480" y="270" width="80" height="40" as="geometry" />
        </mxCell>
      </root>
    </mxGraphModel>
  </diagram>
</mxfile>
